<?xml version="1.0" encoding="utf-8"?>
<!-- Generator: Adobe Illustrator 21.1.0, SVG Export Plug-In . SVG Version: 6.00 Build 0)  -->
<svg version="1.1" id="Layer_1" xmlns="http://www.w3.org/2000/svg" xmlns:xlink="http://www.w3.org/1999/xlink" x="0px" y="0px"
	 viewBox="0 0 512 512" style="enable-background:new 0 0 512 512;" xml:space="preserve">
<style type="text/css">
	.st0{fill:#1D1D1B;}
</style>
<path class="st0" d="M512,240c0-49.2-40-89.1-89.2-89.1c-2.4,0-4.8,0.1-7.1,0.3c-23.1-28.9-58-46-95.7-46c-37.7,0-72.6,17.1-95.7,46
	c-2.4-0.2-4.8-0.3-7.2-0.3c-49.1,0-89.1,40-89.1,89.1c0,5.1,0.7,10.1,1.5,15c-0.5,0.7-1.2,1.4-1.7,2.1c-5.2-0.8-10.5-1.1-15.8-1.1
	C50.3,256,0,306.3,0,368c0,61.8,50.3,112,112,112c13.7,0,27.1-2.5,39.7-7.3c29,25.3,65.8,39.3,104.3,39.3
	c38.5,0,75.3-14.1,104.3-39.3c12.6,4.8,26,7.3,39.7,7.3c61.8,0,112-50.2,112-112c0-25.7-9-49.1-23.7-68
	C502.9,284.1,512,263.2,512,240z M400,448c-17.1,0-32.9-5.5-45.9-14.7C330.6,461.6,295.6,480,256,480c-39.6,0-74.6-18.4-98.1-46.7
	c-13,9.2-28.8,14.7-45.9,14.7c-44.2,0-80-35.8-80-80s35.8-80,80-80c10.8,0,21.1,2.2,30.4,6.1c0.6-1.1,1.3-2,1.8-3
	c5.6-10.3,12.6-19.7,20.7-28c23.1-23.9,55.2-39,91.1-39c49.7,0,92.3,28.7,113.5,70.1c5.6-2.3,11.7-3.8,17.9-4.8L400,288
	c12.3,0,23.9,3,34.3,8c11.3,5.4,21,13.4,28.6,23.2c10.5,13.5,17,30.4,17,48.8C480,412.2,444.2,448,400,448z M465.6,277.6
	c-18.5-13.5-41-21.6-65.6-21.6c-5.3,0-10.6,0.4-15.8,1.1c-29.9-40.7-77-65.1-128.2-65.1c-34.1,0-66.3,11-92.9,30.3
	c7.5-22.9,28.7-39.5,54.1-39.5c7.8,0,15.1,1.6,21.8,4.3c15.2-29.6,45.6-50,81.1-50s66,20.5,81.1,50c6.7-2.8,14.1-4.3,21.7-4.3
	c31.6,0,57.2,25.6,57.2,57.1C480,254.5,474.4,267.5,465.6,277.6z"/>
</svg>
