<?xml version="1.0" encoding="utf-8"?>
<!-- Generator: Adobe Illustrator 21.1.0, SVG Export Plug-In . SVG Version: 6.00 Build 0)  -->
<svg version="1.1" id="Layer_1" xmlns="http://www.w3.org/2000/svg" xmlns:xlink="http://www.w3.org/1999/xlink" x="0px" y="0px"
	 viewBox="0 0 512 512" style="enable-background:new 0 0 512 512;" xml:space="preserve">
<style type="text/css">
	.st0{fill:white;}
</style>
<g>
	<g>
		<path class="st0" d="M192,384l32,32l-32,96l96-96l-32-32l32-64L192,384z M512,134.8c0-49.1-40-89.1-89.2-89.1
			c-2.4,0-4.8,0.1-7.1,0.3c-23.1-28.8-58-46-95.7-46c-37.7,0-72.6,17.1-95.7,46c-2.4-0.2-4.8-0.3-7.2-0.3c-49.1,0-89.1,40-89.1,89.1
			c0,5.1,0.7,10.1,1.5,15c-0.5,0.7-1.2,1.4-1.7,2.1c-5.2-0.8-10.5-1.1-15.8-1.1c-61.8,0-112,50.3-112,112c0,61.8,50.3,112,112,112
			c13.7,0,27.1-2.5,39.7-7.3c1.1,1,2.4,1.6,3.5,2.6l28.3-18.9c-9.4-6.7-18.3-14.1-25.6-23c-13,9.1-28.8,14.6-45.9,14.6
			c-44.2,0-80-35.8-80-80c0-44.2,35.8-80,80-80c10.8,0,21.1,2.2,30.4,6.1c0.6-1.1,1.3-2,1.8-3c5.6-10.3,12.6-19.7,20.7-28
			c23.1-23.9,55.2-39,91.1-39c49.7,0,92.3,28.7,113.5,70.1c5.6-2.3,11.7-3.8,17.9-4.8l12.6-1.3c12.3,0,23.9,3,34.3,8
			c11.3,5.4,21,13.4,28.6,23.2c10.5,13.5,17,30.3,17,48.8c0,44.2-35.8,80-80,80c-17.1,0-32.9-5.5-45.9-14.6
			c-14,16.9-32.4,29.6-53.1,37.6l-6,11.9l18.3,18.3c17.1-6.6,33-16.2,47.1-28.4c12.6,4.8,26,7.3,39.7,7.3c61.8,0,112-50.2,112-112
			c0-25.7-9-49.1-23.7-68C502.9,179,512,158,512,134.8z M465.6,172.5c-18.5-13.4-41-21.6-65.6-21.6c-5.3,0-10.6,0.4-15.8,1.1
			c-29.9-40.7-77-65.1-128.2-65.1c-34.1,0-66.3,11.1-92.9,30.4c7.5-22.9,28.7-39.5,54.1-39.5c7.8,0,15.1,1.6,21.8,4.3
			c15.2-29.6,45.6-50,81.1-50s66,20.5,81.1,50c6.7-2.8,14.1-4.3,21.7-4.3c31.6,0,57.2,25.6,57.2,57.1
			C480,149.3,474.4,162.4,465.6,172.5z"/>
	</g>
</g>
</svg>
