<?xml version="1.0" encoding="utf-8"?>
<!-- Generator: Adobe Illustrator 21.1.0, SVG Export Plug-In . SVG Version: 6.00 Build 0)  -->
<svg version="1.1" id="Layer_1" xmlns="http://www.w3.org/2000/svg" xmlns:xlink="http://www.w3.org/1999/xlink" x="0px" y="0px"
	 viewBox="0 0 512 512" style="enable-background:new 0 0 512 512;" xml:space="preserve">
<style type="text/css">
	.st0{fill:white;}
</style>
<g>
	<g>
		<path class="st0" d="M256,95c8.8,0,16-7.2,16-16V47c0-8.8-7.2-16-16-16s-16,7.2-16,16v32C240,87.8,247.2,95,256,95z M380.4,137.2
			l22.6-22.6c6.2-6.3,6.2-16.4,0-22.6c-6.3-6.3-16.4-6.3-22.6,0l-22.6,22.6c-6.3,6.3-6.3,16.4,0,22.6S374.2,143.4,380.4,137.2z
			 M64,255h32c8.8,0,16-7.2,16-16s-7.2-16-16-16H64c-8.8,0-16,7.2-16,16S55.2,255,64,255z M400,239c0,8.8,7.2,16,16,16h32
			c8.8,0,16-7.2,16-16s-7.2-16-16-16h-32C407.2,223,400,230.2,400,239z M131.5,137.2c6.3,6.3,16.4,6.3,22.6,0
			c6.3-6.3,6.3-16.4,0-22.6l-22.6-22.6c-6.3-6.3-16.4-6.3-22.6,0c-6.3,6.3-6.3,16.4,0,22.6L131.5,137.2z M145.6,255h32
			c-1.1-5.2-1.6-10.5-1.6-16c0-44.2,35.8-80,80-80s80,35.8,80,80c0,5.5-0.6,10.8-1.6,16h32c0.8-5.3,1.6-10.5,1.6-16
			c0-61.8-50.3-112-112-112s-112,50.3-112,112C144,244.5,144.9,249.7,145.6,255z M448,287H64c-8.8,0-16,7.2-16,16s7.2,16,16,16h384
			c8.8,0,16-7.2,16-16S456.8,287,448,287z M448,351H64c-8.8,0-16,7.2-16,16s7.2,16,16,16h384c8.8,0,16-7.2,16-16S456.8,351,448,351z
			 M448,415H64c-8.8,0-16,7.2-16,16s7.2,16,16,16h384c8.8,0,16-7.2,16-16S456.8,415,448,415z"/>
	</g>
</g>
</svg>
